HIERARCHY
ROOT Hips
{
	OFFSET 0.000000 0.000000 0.000000
	CHANNELS 6 Xposition Yposition Zposition Zrotation Yrotation Xrotation 
	JOINT LHipJoint
	{
		OFFSET 0.000000 0.000000 0.000000
		CHANNELS 3 Zrotation Yrotation Xrotation
		JOINT LeftUpLeg
		{
			OFFSET 1.363060 -1.794630 0.839290
			CHANNELS 3 Zrotation Yrotation Xrotation
			JOINT LeftLeg
			{
				OFFSET 2.448110 -6.726130 0.000000
				CHANNELS 3 Zrotation Yrotation Xrotation
				JOINT LeftFoot
				{
					OFFSET 2.562200 -7.039590 0.000000
					CHANNELS 3 Zrotation Yrotation Xrotation
					JOINT LeftToeBase
					{
						OFFSET 0.157640 -0.433110 2.322550
						CHANNELS 3 Zrotation Yrotation Xrotation
						End Site
						{
							OFFSET 0.000000 0.000000 0.000000
						}
					}
				}
			}
		}
	}
	JOINT RHipJoint
	{
		OFFSET 0.000000 0.000000 0.000000
		CHANNELS 3 Zrotation Yrotation Xrotation
		JOINT RightUpLeg
		{
			OFFSET -1.305520 -1.794630 0.839290
			CHANNELS 3 Zrotation Yrotation Xrotation
			JOINT RightLeg
			{
				OFFSET -2.542530 -6.985550 0.000000
				CHANNELS 3 Zrotation Yrotation Xrotation
				JOINT RightFoot
				{
					OFFSET -2.568260 -7.056230 0.000000
					CHANNELS 3 Zrotation Yrotation Xrotation
					JOINT RightToeBase
					{
						OFFSET -0.164730 -0.452590 2.363150
						CHANNELS 3 Zrotation Yrotation Xrotation
						End Site
						{
							OFFSET 0.000000 0.000000 0.000000
						}
					}
				}
			}
		}
	}
	JOINT LowerBack
	{
		OFFSET 0.000000 0.000000 0.000000
		CHANNELS 3 Zrotation Yrotation Xrotation
		JOINT Spine
		{
			OFFSET 0.028270 2.035590 -0.193380
			CHANNELS 3 Zrotation Yrotation Xrotation
			JOINT Spine1
			{
				OFFSET 0.056720 2.048850 -0.042750
				CHANNELS 3 Zrotation Yrotation Xrotation
				JOINT Neck
				{
					OFFSET 0.000000 0.000000 0.000000
					CHANNELS 3 Zrotation Yrotation Xrotation
					JOINT Neck1
					{
						OFFSET -0.054170 1.746240 0.172020
						CHANNELS 3 Zrotation Yrotation Xrotation
						JOINT Head
						{
							OFFSET 0.104070 1.761360 -0.123970
							CHANNELS 3 Zrotation Yrotation Xrotation
							End Site
							{
								OFFSET 0.000000 0.000000 0.000000
							}
						}
					}
				}
				JOINT LeftShoulder
				{
					OFFSET 0.000000 0.000000 0.000000
					CHANNELS 3 Zrotation Yrotation Xrotation
					JOINT LeftArm
					{
						OFFSET 3.362410 1.200890 -0.311210
						CHANNELS 3 Zrotation Yrotation Xrotation
						JOINT LeftForeArm
						{
							OFFSET 4.983000 -0.000000 -0.000000
							CHANNELS 3 Zrotation Yrotation Xrotation
							JOINT LeftHand
							{
								OFFSET 3.483560 -0.000000 -0.000000
								CHANNELS 3 Zrotation Yrotation Xrotation
								JOINT LeftFingerBase
								{
									OFFSET 0.000000 0.000000 0.000000
									CHANNELS 3 Zrotation Yrotation Xrotation
									JOINT LeftHandIndex1
									{
										OFFSET 0.715260 -0.000000 -0.000000
										CHANNELS 3 Zrotation Yrotation Xrotation
										End Site
										{
											OFFSET 0.000000 0.000000 0.000000
										}
									}
								}
								JOINT LThumb
								{
									OFFSET 0.000000 0.000000 0.000000
									CHANNELS 3 Zrotation Yrotation Xrotation
									End Site
									{
										OFFSET 0.000000 0.000000 0.000000
									}
								}
							}
						}
					}
				}
				JOINT RightShoulder
				{
					OFFSET 0.000000 0.000000 0.000000
					CHANNELS 3 Zrotation Yrotation Xrotation
					JOINT RightArm
					{
						OFFSET -3.136600 1.374050 -0.404650
						CHANNELS 3 Zrotation Yrotation Xrotation
						JOINT RightForeArm
						{
							OFFSET -5.241900 -0.000000 -0.000000
							CHANNELS 3 Zrotation Yrotation Xrotation
							JOINT RightHand
							{
								OFFSET -3.444170 -0.000000 -0.000000
								CHANNELS 3 Zrotation Yrotation Xrotation
								JOINT RightFingerBase
								{
									OFFSET 0.000000 0.000000 0.000000
									CHANNELS 3 Zrotation Yrotation Xrotation
									JOINT RightHandIndex1
									{
										OFFSET -0.622530 -0.000000 -0.000000
										CHANNELS 3 Zrotation Yrotation Xrotation
										End Site
										{
											OFFSET 0.000000 0.000000 0.000000
										}
									}
								}
								JOINT RThumb
								{
									OFFSET 0.000000 0.000000 0.000000
									CHANNELS 3 Zrotation Yrotation Xrotation
									End Site
									{
										OFFSET 0.000000 0.000000 0.000000
									}
								}
							}
						}
					}
				}
			}
		}
	}
}
MOTION
Frames: 8
Frame Time: 0.008333
0.162652 17.505935 -31.773749 -5.957679 -0.387860 10.501004 1.540240 -0.078082 -0.177380 -12.566000 -14.969514 -37.403693 0.953438 8.697519 23.127708 0.783703 -3.925294 -4.433009 0.001100 0.216500 0.594900 -4.115354 -0.395945 -2.100883 35.022397 -2.255705 15.325532 0.258874 0.026328 1.178050 1.126689 -11.374600 -11.983952 -0.026800 -1.056600 2.904500 3.717287 2.706203 5.704466 2.161893 3.753002 -0.980033 5.832948 1.520112 0.444579 -9.034123 -0.314008 -13.539747 -1.903284 1.842685 10.809053 -0.308200 -0.065600 7.660500 1.373928 4.319946 -0.558320 -91.016402 14.425600 24.251350 18.102244 -29.071887 -4.393775 0.451826 0.042222 6.186640 -0.776784 42.616141 -0.825900 -7.125000 0.000000 0.000000 -50.054100 65.741100 -28.046200 -0.068878 -4.918391 -1.569794 80.585491 5.241542 -16.931341 -4.997584 8.507156 -0.133984 0.744389 0.136204 5.160455 -10.553429 11.785989 -2.287900 7.125000 0.000000 0.000000 11.094400 -18.329800 7.178200 
0.165191 17.493751 -31.660746 -6.182152 -0.588781 10.520415 1.531505 -0.074531 -0.167866 -12.235235 -15.229302 -36.907274 0.962825 8.708965 23.182856 0.766731 -3.807539 -4.333899 0.000700 0.176000 0.483400 -4.118896 -0.392429 -2.115700 35.160963 -2.332027 15.718154 0.261045 0.024542 1.183524 1.150695 -11.396975 -11.553756 -0.010600 -0.664500 1.826200 3.708320 2.707852 5.601121 2.188322 3.743778 -0.967367 5.939822 1.509197 0.542025 -9.259211 -0.271719 -13.722756 -1.762400 1.970900 10.843556 -0.194700 -0.011500 7.703000 1.367525 4.326800 -0.556946 -91.175337 14.562658 23.711189 17.919885 -28.846294 -4.315895 0.455070 0.033895 6.191336 0.333447 41.808057 -0.077100 -7.125000 0.000000 0.000000 -47.726600 65.542900 -26.264600 -0.067889 -4.909352 -1.565786 80.511920 5.753669 -16.654596 -4.762314 7.971188 -0.083756 0.763145 0.126808 5.432051 -10.820526 12.016953 -2.394000 7.125000 0.000000 0.000000 10.887800 -18.081600 7.100400 
0.186918 17.497406 -31.536472 -5.998550 -0.755413 10.719970 1.534866 -0.065104 -0.144718 -12.671466 -15.135886 -36.695070 0.983351 8.712530 23.237626 0.799343 -4.236634 -3.919159 0.000900 0.189400 0.520400 -4.099328 -0.388438 -2.118490 34.740264 -2.376868 15.919089 0.253656 0.027569 1.185172 1.169391 -11.390347 -11.100775 -0.002600 -0.328600 0.902800 3.507217 2.754773 5.293341 2.093045 3.778069 -1.064879 5.775371 1.539641 0.440345 -9.176654 -0.246392 -13.546465 -1.671747 1.957630 10.914856 -0.175200 -0.001100 7.691700 1.360800 4.335240 -0.565214 -91.122861 14.810557 23.233201 17.797506 -28.668179 -4.247014 0.453254 0.039412 6.548811 -0.966155 41.992844 -0.943400 -7.125000 0.000000 0.000000 -49.194700 65.276500 -26.958600 -0.093490 -4.910663 -1.575246 80.621252 5.202543 -16.523622 -4.976631 8.476167 -0.123371 0.766197 0.091191 5.099783 -10.198114 12.656481 -2.392000 7.125000 0.000000 0.000000 11.290400 -17.437600 7.536700 
0.194025 17.491112 -31.414533 -6.106887 -0.837982 10.663045 1.533122 -0.055658 -0.128219 -12.546033 -15.437284 -36.192254 1.007021 8.749100 23.376350 0.767260 -4.098825 -3.485490 0.000900 0.198900 0.546600 -4.094798 -0.383218 -2.138080 34.715477 -2.616603 16.357433 0.253452 0.026566 1.190742 1.176383 -11.316598 -10.655581 -0.001100 -0.214600 0.589500 3.439521 2.862952 5.228514 2.076489 3.916299 -1.072111 5.786829 1.607701 0.437279 -9.215829 -0.313441 -13.528968 -1.549371 1.866426 10.950231 -0.130000 -0.035100 7.700200 1.360132 4.339046 -0.568342 -90.966825 14.788272 23.468409 17.658447 -28.480647 -4.173779 0.453936 0.039885 6.454244 -0.694272 42.308208 -0.767000 -7.125000 0.000000 0.000000 -49.467200 65.564500 -27.454400 -0.096228 -4.906355 -1.573814 80.633442 5.156458 -16.691885 -5.021033 8.567628 -0.141884 0.741636 0.121713 5.026179 -10.254792 11.946582 -2.259500 7.125000 0.000000 0.000000 11.295800 -18.168400 7.354900 
0.213519 17.498422 -31.286605 -5.905138 -0.841003 10.752984 1.537105 -0.042317 -0.100223 -12.773255 -15.946275 -35.800369 1.022606 8.773540 23.471092 0.719504 -3.880197 -2.874369 0.002400 0.313200 0.860400 -4.079914 -0.378884 -2.150961 34.294598 -2.877998 16.627679 0.246068 0.028167 1.193618 1.180365 -11.217668 -10.143183 -0.000500 -0.143900 0.395400 3.157314 2.945367 5.059619 2.012972 4.007684 -1.147303 5.767241 1.660540 0.314018 -9.168296 -0.379994 -13.491816 -1.474176 1.765386 11.081696 -0.122700 -0.076100 7.750700 1.359094 4.338860 -0.575945 -90.911994 14.948151 23.343304 17.473689 -28.232636 -4.093240 0.453946 0.038070 6.742185 -0.665830 41.628333 -0.737800 -7.125000 0.000000 0.000000 -48.335500 65.122300 -26.221000 -0.109416 -4.899418 -1.584782 80.628078 4.881773 -16.863047 -5.075884 8.702440 -0.157446 0.733432 0.107519 4.550842 -9.810498 12.102105 -2.197200 7.125000 0.000000 0.000000 11.600600 -18.015200 7.601800 
0.226921 17.508676 -31.158168 -5.868230 -0.929150 10.779978 1.550110 -0.028617 -0.077008 -13.167717 -15.478948 -35.722217 1.070334 8.803432 23.630765 0.762888 -4.582930 -1.795566 0.010400 0.659100 1.811200 -4.070770 -0.374767 -2.161243 34.061142 -3.070622 16.972884 0.240478 0.028178 1.198382 1.192254 -11.146614 -9.493809 -0.000200 -0.082300 0.226100 3.055494 2.949641 5.029778 1.954418 4.013279 -1.221875 5.642702 1.671983 0.145326 -9.098665 -0.340440 -13.497276 -1.384074 1.805922 11.218896 -0.093900 -0.049500 7.810800 1.350774 4.334522 -0.589279 -90.868560 15.002874 22.950319 17.238762 -27.892903 -3.965757 0.453115 0.039843 6.762563 -0.977569 42.131925 -0.953100 -7.125000 0.000000 0.000000 -49.427900 65.363500 -27.209700 -0.118746 -4.889161 -1.589255 80.794541 4.747891 -16.706670 -5.091585 8.741433 -0.156073 0.745245 0.080972 4.376329 -9.571069 12.636912 -2.249000 7.125000 0.000000 0.000000 11.734300 -17.469000 7.837500 
0.242557 17.525327 -31.031255 -5.522793 -0.917224 10.821630 1.563912 -0.014954 -0.055399 -13.693511 -15.616859 -35.439673 1.092389 8.815957 23.711679 0.746044 -4.688809 -0.835774 0.026000 1.040500 2.860300 -4.052155 -0.368272 -2.184878 33.494461 -3.382197 17.240645 0.231100 0.028540 1.200762 1.211967 -11.126029 -8.752530 -0.000100 0.064900 -0.178200 2.709479 2.932153 4.815589 1.864377 3.965502 -1.231610 5.572141 1.646344 0.244221 -9.101029 -0.346370 -13.542540 -1.301659 1.803015 11.297409 -0.060500 -0.044900 7.843600 1.335988 4.348610 -0.591006 -90.752511 15.093182 23.003743 17.175264 -27.816843 -3.944723 0.455772 0.035865 7.096602 -0.716621 41.534382 -0.771000 -7.125000 0.000000 0.000000 -48.232400 65.043400 -26.068600 -0.138581 -4.892976 -1.582912 80.866925 4.764962 -16.666915 -5.070492 8.691100 -0.156415 0.735351 0.106328 4.007982 -9.720981 12.224500 -2.202300 7.125000 0.000000 0.000000 11.654800 -17.890200 7.671700 
0.261645 17.540252 -30.906169 -5.147432 -0.631533 10.816460 1.579337 -0.001771 -0.033488 -14.372419 -15.664386 -35.193654 1.122009 8.830588 23.807841 0.761247 -5.101620 0.150342 0.052000 1.471800 4.047900 -4.031859 -0.363342 -2.210304 32.921765 -3.959293 17.455571 0.223538 0.025996 1.202653 1.232708 -11.131628 -7.992856 -0.000900 0.194200 -0.533700 2.531679 2.826878 4.724307 1.766984 3.818463 -1.241195 5.366423 1.573097 0.308258 -9.168856 -0.386647 -13.678874 -1.216757 1.782613 11.394320 -0.007600 -0.056400 7.906900 1.309446 4.359029 -0.597206 -90.600133 15.013477 22.810270 17.076931 -27.671680 -3.889138 0.457336 0.037948 7.017083 -1.007174 41.740311 -0.968200 -7.125000 0.000000 0.000000 -48.823700 65.094300 -26.514000 -0.168698 -4.888655 -1.576485 80.935455 4.922938 -16.673125 -5.034825 8.625232 -0.149039 0.738556 0.115683 3.916146 -9.899737 12.163763 -2.228700 7.125000 0.000000 0.000000 11.532100 -17.949800 7.572000 
